<svg xmlns="http://www.w3.org/2000/svg" width="1200" height="600">
<rect width="100%" height="100%" fill="#fff"/>
<line x1="60" y1="60.0" x2="1140" y2="60.0" stroke="#eee" stroke-width="1"/>
<line x1="60" y1="156.0" x2="1140" y2="156.0" stroke="#eee" stroke-width="1"/>
<line x1="60" y1="252.0" x2="1140" y2="252.0" stroke="#eee" stroke-width="1"/>
<line x1="60" y1="348.0" x2="1140" y2="348.0" stroke="#eee" stroke-width="1"/>
<line x1="60" y1="444.0" x2="1140" y2="444.0" stroke="#eee" stroke-width="1"/>
<line x1="60" y1="540.0" x2="1140" y2="540.0" stroke="#eee" stroke-width="1"/>
<line x1="60" y1="60" x2="60" y2="540" stroke="#333"/>
<line x1="60" y1="540" x2="1140" y2="540" stroke="#333"/>
<polyline points="60.0,482.08721011479213 79.28571428571428,501.06143977065585 98.57142857142857,503.6454682503388 117.85714285714286,488.87219401854514 137.14285714285714,492.13667032866164 156.42857142857144,486.7229155281095 175.71428571428572,496.2178997854909 195.0,496.33229683125126 214.28571428571428,481.3114323338841 233.57142857142858,486.0499730928475 252.85714285714286,485.67832283724243 272.1428571428571,485.08987659920126 291.42857142857144,482.77945084352376 310.7142857142857,479.4716557900657 330.0,479.65235462200906 349.2857142857143,482.63327336498924 368.57142857142856,478.10217539036313 387.85714285714283,494.2441848254716 407.14285714285717,497.3043728514698 426.42857142857144,481.67754871718324 445.7142857142857,463.9869965503872 465.0,445.5779205560885 484.2857142857143,446.3851418141768 503.57142857142856,426.3467114566119 522.8571428571429,435.48930774449383 542.1428571428571,427.3873321723057 561.4285714285714,405.5342971427344 580.7142857142858,402.4991533886272 600.0,389.6276662028423 619.2857142857143,386.9517007411791 638.5714285714286,360.6830041646233 657.8571428571429,359.208791484057 677.1428571428571,381.2883739793546 696.4285714285714,378.6038543676416 715.7142857142857,404.04035957527844 735.0,460.9616359586528 754.2857142857143,468.2140507900142 773.5714285714286,453.86615987222734 792.8571428571429,435.6625399045862 812.1428571428571,406.0269248223781 831.4285714285714,423.36011499796996 850.7142857142857,423.1224557580943 870.0,421.16310405373787 889.2857142857143,426.5789508478719 908.5714285714286,456.39807813201264 927.8571428571429,420.87638542371064 947.1428571428571,423.4875543608208 966.4285714285714,421.23055387353253 985.7142857142857,452.49451853399125 1005.0,467.9693861665933 1024.2857142857142,498.2834898274893 1043.5714285714284,505.7506561594535 1062.857142857143,535.7284937630901 1082.142857142857,531.5144763329097 1101.4285714285716,531.7089968382396 1120.7142857142856,539.2748397029115 1140.0,540.0" fill="none" stroke="#1f77b4" stroke-width="2"/>
<text x="1150.0" y="540.0" font-size="16" fill="#1f77b4">旧逻辑</text>
<polyline points="60.0,482.08721011479213 64.48132780082987,497.0615074545489 68.96265560165975,496.1184666105497 73.44398340248962,484.5353669775288 77.9253112033195,482.1444169998033 82.40663900414938,476.46436225997417 86.88796680497924,492.5134591311816 91.36929460580913,482.497484742628 95.850622406639,457.5101992241215 100.33195020746888,461.85231304377254 104.81327800829875,468.37477502963964 109.29460580912863,458.8543343152261 113.7759336099585,452.67874590125706 118.25726141078839,452.3132898165786 122.73858921161826,442.1300728130029 127.21991701244814,456.94971966781463 131.701244813278,445.33564918015975 136.18257261410787,460.0985351302668 140.66390041493776,444.46995432910546 145.14522821576764,425.8688590360773 149.6265560165975,401.14792286742096 154.10788381742736,396.7067023129415 158.58921161825725,398.29241007018953 163.07053941908714,364.23066414399517 167.551867219917,378.34717968605685 172.0331950207469,360.5761032972131 176.51452282157678,366.62780829264716 180.99585062240664,367.07496549184907 185.47717842323652,356.6439816512035 189.95850622406638,339.93210849083385 194.43983402489627,321.5354208383884 198.92116182572613,337.8075078629587 203.40248962655602,336.6863629252171 207.8838174273859,339.6856176529745 212.36514522821577,355.1153073421806 216.84647302904565,370.1082274568285 221.3278008298755,379.89325404063 225.8091286307054,365.02061109820306 230.29045643153526,346.2274965064458 234.77178423236515,340.6031893049575 239.253112033195,341.36583545080566 243.7344398340249,347.89944694434087 248.21576763485476,333.1037281718193 252.69709543568464,338.19533667360724 257.1784232365145,342.90787740010524 261.6597510373444,325.06089454363996 266.1410788381743,323.29555582951633 270.6224066390041,312.3194849473165 275.103734439834,321.58869008894135 279.5850622406639,324.72380838122297 284.0663900414938,333.75584110704847 288.54771784232366,331.29120062542415 293.02904564315355,343.8237459801689 297.51037344398344,343.8083103927693 301.99170124481327,336.9054484988854 306.47302904564316,338.62278393223767 310.95435684647305,336.1733049061166 315.4356846473029,345.67020261570457 319.91701244813277,347.9801854881607 324.39834024896265,385.48805840945215 328.87966804979254,398.8433530843958 333.3609958506224,398.78943220706105 337.84232365145226,373.03603923999225 342.32365145228215,367.4860620896248 346.80497925311204,353.9951578111651 351.28630705394187,349.8636458030232 355.7676348547718,351.3316643126628 360.24896265560164,351.80242130309574 364.73029045643153,356.6958163352275 369.21161825726136,354.2986721865756 373.6929460580913,332.0615985595457 378.1742738589212,340.90169693546613 382.655601659751,346.25987591900633 387.1369294605809,355.2025330412119 391.6182572614108,349.21690436413917 396.0995850622407,351.11851483865104 400.5809128630705,343.7970048032335 405.0622406639004,336.05429114479676 409.5435684647303,310.701549541612 414.0248962655602,325.62330730415084 418.50622406639,312.5907716742705 422.98755186721996,313.098693690264 427.4688796680498,302.4694963799622 431.9502074688797,311.686422718965 436.4315352697095,313.2597421343595 440.91286307053946,330.56625570369704 445.3941908713693,328.64855029544907 449.8755186721992,327.73255320171586 454.356846473029,324.17090491883505 458.83817427385895,318.42890846973825 463.3195020746888,322.28168278617653 467.8008298755187,331.0853538622933 472.2821576763485,328.2885995904152 476.76348547717845,334.9877560174268 481.2448132780083,339.81017290698264 485.72614107883817,333.6760843772038 490.207468879668,347.97757487111534 494.68879668049794,347.43953131527036 499.1701244813278,334.6777280174233 503.65145228215766,324.98540553386147 508.13278008298755,322.07896389192325 512.6141078838175,317.9685453958433 517.0954356846473,326.2226556351499 521.5767634854772,322.77394114097734 526.0580912863071,318.0400291952802 530.5394190871369,326.15830982662675 535.0207468879669,308.1236554497855 539.5020746887967,311.47705331284703 543.9834024896265,304.14792359627427 548.4647302904564,310.3591054951575 552.9460580912863,320.7101030602421 557.4273858921161,310.5727133095067 561.9087136929461,305.2579601279 566.3900414937759,290.20297596750936 570.8713692946058,292.85200790079307 575.3526970954357,285.3690697974489 579.8340248962655,282.232959472919 584.3153526970955,276.783980947651 588.7966804979253,282.48951357999096 593.2780082987553,269.12091834344665 597.7593360995851,281.8315885934811 602.2406639004149,283.22541613372744 606.7219917012447,257.71132906667975 611.2033195020747,262.0962138594572 615.6846473029045,263.9381402768096 620.1659751037345,267.61725625063207 624.6473029045643,259.46918902906884 629.1286307053942,247.37350312847835 633.6099585062241,255.9652644282855 638.0912863070539,228.01310608650346 642.5726141078837,236.91381483223262 647.0539419087137,230.95094163083724 651.5352697095436,232.30542960644053 656.0165975103735,222.15980630541515 660.4979253112033,228.76704732879452 664.9792531120332,226.7321544978315 669.4605809128631,222.39063989825513 673.9419087136929,205.23284402280635 678.4232365145227,209.1344658365889 682.9045643153527,215.58552704836586 687.3858921161826,232.85913424713863 691.8672199170124,223.1293839568321 696.3485477178424,226.38917780028305 700.8298755186722,219.02737477768383 705.311203319502,220.72924262271545 709.7925311203319,227.25799405040453 714.2738589211618,216.94677728365753 718.7551867219918,217.65067083994208 723.2365145228216,208.11910073491157 727.7178423236514,204.8027622259873 732.1991701244814,172.6984814829735 736.6804979253112,159.11207012389985 741.161825726141,145.3440148230262 745.6431535269709,137.5634721196894 750.1244813278008,163.27768645308504 754.6058091286308,133.87064884921568 759.0871369294606,132.52543461123764 763.5684647302904,130.87691705029144 768.0497925311204,141.92247865616434 772.5311203319502,126.24673813796994 777.01244813278,117.00011331632439 781.4937759336099,118.46660747410843 785.9751037344399,125.12964308423493 790.4564315352698,127.12874217328641 794.9377593360996,157.1006884133434 799.4190871369294,125.54335400653753 803.9004149377594,131.03184914332394 808.3817427385892,136.87813472875573 812.863070539419,136.70233140460022 817.3443983402489,110.1178303877572 821.8257261410789,92.79573651348903 826.3070539419087,101.3905804557259 830.7883817427386,97.35187890849272 835.2697095435685,84.58882739434662 839.7510373443984,86.95726116382318 844.2323651452282,93.94743865880366 848.713692946058,91.64828157308125 853.1950207468881,96.66050701849028 857.6763485477179,89.78930368197821 862.1576763485477,88.43665664198035 866.6390041493776,96.89538695179701 871.1203319502075,87.49841174310401 875.6016597510373,71.73443220448732 880.0829875518672,77.95534824056539 884.564315352697,105.65089147812242 889.0456431535271,80.86480722682553 893.5269709543569,94.48597407921041 898.0082987551867,68.75843547825812 902.4896265560166,81.98494799047388 906.9709543568465,97.67068211105547 911.4522821576763,93.30656944125401 915.9336099585062,90.38880835836466 920.414937759336,94.31599240379211 924.8962655601661,89.36465478099875 929.3775933609959,76.7155955159368 933.8589211618257,81.20596025578642 938.3402489626556,81.45302060560309 942.8215767634855,65.94776692787494 947.3029045643153,69.5972097664 951.7842323651452,60.0 956.2655601659751,61.339044462521244 960.746887966805,74.81008633998756 965.2282157676349,64.79190855171532 969.7095435684647,71.9067063575068 974.1908713692945,71.05630512209342 978.6721991701245,73.97777958743661 983.1535269709543,76.69886085364708 987.6348547717841,78.39133733834751 992.1161825726142,83.04393291497175 996.597510373444,75.16254642568012 1001.0788381742739,63.907935611303195 1005.5601659751037,60.81017436700364 1010.0414937759336,67.59689810639516 1014.5228215767635,91.75874508119776 1019.0041493775933,97.07897662814429 1023.4854771784233,80.26016239341224 1027.966804979253,77.13203754822246 1032.4481327800831,78.9178655427556 1036.9294605809127,79.55748075090361 1041.4107883817428,65.71480959340039 1045.8921161825726,65.17212195406353 1050.3734439834025,78.1896976726002 1054.8547717842323,90.146273502521 1059.3360995850621,98.8882763048571 1063.8174273858922,88.92344110801902 1068.298755186722,84.41149693299013 1072.7800829875519,92.97952658760705 1077.2614107883817,83.13405323949249 1081.7427385892115,87.40616558963944 1086.2240663900413,84.04856628635132 1090.7053941908714,86.10361754892786 1095.1867219917012,91.40163591645654 1099.668049792531,84.92783620233291 1104.149377593361,86.49673325472602 1108.630705394191,82.56545371602962 1113.1120331950208,77.27890207753975 1117.5933609958506,75.71186052125813 1122.0746887966804,75.18998576865565 1126.5560165975105,76.1270198856706 1131.0373443983403,70.53324653252892 1135.5186721991702,74.81942790894445 1140.0,65.77673415677123" fill="none" stroke="#d62728" stroke-width="2"/>
<text x="1150.0" y="65.77673415677123" font-size="16" fill="#d62728">T+1 撮合</text>
<text x="60" y="30" font-size="20" fill="#222">2025 CSI500 回测净值对比</text>
<text x="60" y="50" font-size="14" fill="#555">横轴按交易日排序 / 纵轴归一化净值</text>
</svg>